HIERARCHY
ROOT Hips
{
	OFFSET 0.000000 0.000000 0.000000
	CHANNELS 6 Xposition Yposition Zposition Xrotation Yrotation Zrotation
	JOINT LeftUpLeg_virtual
	{
		OFFSET 0.000000 0.000000 0.000000
		CHANNELS 3 Xrotation Yrotation Zrotation
		JOINT LeftUpLeg
		{
			OFFSET 11.394100 -6.187798 -0.413800
			CHANNELS 3 Xrotation Yrotation Zrotation
			JOINT LeftLeg
			{
				OFFSET 0.430247 -32.302673 3.732800
				CHANNELS 3 Xrotation Yrotation Zrotation
				JOINT LeftFoot
				{
					OFFSET -0.430247 -48.264931 -6.423300
					CHANNELS 3 Xrotation Yrotation Zrotation
					JOINT LeftToeBase
					{
						OFFSET 4.230900 -16.068199 23.438400
						CHANNELS 3 Xrotation Yrotation Zrotation
						JOINT LeftToe_End
						{
							OFFSET 4.510700 0.695400 19.974600
							CHANNELS 3 Xrotation Yrotation Zrotation
							End Site
							{
								OFFSET 0 0 0
							}
						}
					}
				}
			}
		}
	}
	JOINT RightUpLeg_virtual
	{
		OFFSET 0.000000 0.000000 0.000000
		CHANNELS 3 Xrotation Yrotation Zrotation
		JOINT RightUpLeg
		{
			OFFSET -11.333700 -6.187798 -0.413800
			CHANNELS 3 Xrotation Yrotation Zrotation
			JOINT RightLeg
			{
				OFFSET -0.430392 -32.302628 3.733000
				CHANNELS 3 Xrotation Yrotation Zrotation
				JOINT RightFoot
				{
					OFFSET 0.430392 -48.264973 -6.423500
					CHANNELS 3 Xrotation Yrotation Zrotation
					JOINT RightToeBase
					{
						OFFSET -4.230900 -16.068199 23.438400
						CHANNELS 3 Xrotation Yrotation Zrotation
						JOINT RightToe_End
						{
							OFFSET -4.510700 0.695400 19.974600
							CHANNELS 3 Xrotation Yrotation Zrotation
							End Site
							{
								OFFSET 0 0 0
							}
						}
					}
				}
			}
		}
	}
	JOINT Spine_virtual
	{
		OFFSET 0.000000 0.000000 0.000000
		CHANNELS 3 Xrotation Yrotation Zrotation
		JOINT Spine
		{
			OFFSET -0.002400 12.777504 0.315300
			CHANNELS 3 Xrotation Yrotation Zrotation
			JOINT Spine1
			{
				OFFSET -0.002067 5.816869 0.032633
				CHANNELS 3 Xrotation Yrotation Zrotation
				JOINT Spine1_split
				{
					OFFSET -0.002067 5.816869 0.032633
					CHANNELS 3 Xrotation Yrotation Zrotation
					JOINT Spine2
					{
						OFFSET -0.002067 5.816869 0.032633
						CHANNELS 3 Xrotation Yrotation Zrotation
						JOINT Neck_virtual
						{
							OFFSET 0.000000 0.000000 0.000000
							CHANNELS 3 Xrotation Yrotation Zrotation
							JOINT Neck
							{
								OFFSET -0.003700 21.199493 -0.826900
								CHANNELS 3 Xrotation Yrotation Zrotation
								JOINT Head
								{
									OFFSET 0.000000 20.442200 4.834800
									CHANNELS 3 Xrotation Yrotation Zrotation
									JOINT HeadTop_End
									{
										OFFSET 0.000000 34.668396 4.968400
										CHANNELS 3 Xrotation Yrotation Zrotation
										End Site
										{
											OFFSET 0 0 0
										}
									}
								}
							}
						}
						JOINT LeftShoulder_virtual
						{
							OFFSET 0.000000 0.000000 0.000000
							CHANNELS 3 Xrotation Yrotation Zrotation
							JOINT LeftShoulder
							{
								OFFSET 3.288150 8.794197 -1.372250
								CHANNELS 3 Xrotation Yrotation Zrotation
								JOINT LeftShoulder_split
								{
									OFFSET 3.288150 8.794197 -1.372250
									CHANNELS 3 Xrotation Yrotation Zrotation
									JOINT LeftArm
									{
										OFFSET 11.953299 -2.279007 -0.146200
										CHANNELS 3 Xrotation Yrotation Zrotation
										JOINT LeftForeArm
										{
											OFFSET 18.448900 0.000000 0.000000
											CHANNELS 3 Xrotation Yrotation Zrotation
											JOINT LeftHand
											{
												OFFSET 29.527798 0.000000 0.000000
												CHANNELS 3 Xrotation Yrotation Zrotation
												End Site
												{
													OFFSET 0 0 0
												}
											}
										}
									}
								}
							}
						}
						JOINT RightShoulder_virtual
						{
							OFFSET 0.000000 0.000000 0.000000
							CHANNELS 3 Xrotation Yrotation Zrotation
							JOINT RightShoulder
							{
								OFFSET -3.249400 8.794197 -1.372250
								CHANNELS 3 Xrotation Yrotation Zrotation
								JOINT RightShoulder_split
								{
									OFFSET -3.249400 8.794197 -1.372250
									CHANNELS 3 Xrotation Yrotation Zrotation
									JOINT RightArm
									{
										OFFSET -11.953299 -2.279007 -0.146200
										CHANNELS 3 Xrotation Yrotation Zrotation
										JOINT RightForeArm
										{
											OFFSET -18.448900 0.000000 0.000000
											CHANNELS 3 Xrotation Yrotation Zrotation
											JOINT RightHand
											{
												OFFSET -29.527802 0.000000 0.000000
												CHANNELS 3 Xrotation Yrotation Zrotation
												End Site
												{
													OFFSET 0 0 0
												}
											}
										}
									}
								}
							}
						}
					}
				}
			}
		}
	}
}
MOTION
Frames: 4
Frame Time: 0.03333333
6.939932 95.972710 -6.457890 0.000000 0.000000 0.000000 7.533179 -32.855846 -20.084578 -40.220259 -11.808760 25.741830 48.501385 5.644596 8.632802 -5.664924 29.043928 -11.787760 -0.315152 0.000004 0.000004 0.000000 0.000000 0.000000 7.533179 -32.855846 -20.084578 -27.395359 3.350093 25.487160 18.017238 -0.022568 7.470810 3.117534 12.862763 -7.297951 -4.013779 0.000003 -0.000002 0.000000 0.000000 0.000000 7.533179 -32.855846 -20.084578 20.012195 -5.292296 14.660152 14.882793 -0.853704 11.261198 0.000000 0.000000 0.000000 0.000000 0.000000 0.000000 15.131227 -0.648042 9.675228 -9.983883 -2.860073 5.479619 44.315230 -21.168855 34.786396 0.000000 0.000000 0.000000 15.131227 -0.648042 9.675228 1.428811 -22.224476 -11.600543 0.000000 0.000000 0.000000 -29.377101 -24.713923 -57.022838 0.000011 -6.918362 -0.000000 0.000000 0.000000 0.000000 15.131227 -0.648042 9.675228 2.724549 8.294337 13.453016 0.000000 0.000000 0.000000 6.429269 49.813840 20.457870 0.000000 22.722605 0.000000 0.000000 0.000000 0.000000 
6.791293 95.970520 -6.459511 0.000000 0.000000 0.000000 7.543964 -32.577403 -20.037154 -40.272100 -11.718488 25.809060 48.427517 5.622148 8.632221 -5.671041 28.657503 -11.808702 -0.314899 -0.000003 -0.000000 0.000000 0.000000 0.000000 7.543964 -32.577403 -20.037154 -27.394622 3.329559 25.534459 18.102330 0.016807 7.425890 3.005860 12.555121 -7.361085 -4.016482 0.000002 -0.000002 0.000000 0.000000 0.000000 7.543964 -32.577403 -20.037154 19.868450 -5.365042 14.797875 14.807942 -0.877124 11.320871 0.000000 0.000000 0.000000 0.000000 0.000000 0.000000 15.054850 -0.669731 9.734746 -9.932001 -2.864899 5.463869 44.440185 -21.362269 34.797601 0.000000 0.000000 0.000000 15.054850 -0.669731 9.734746 1.413651 -22.300055 -11.647847 0.000000 0.000000 0.000000 -29.076740 -25.170190 -57.285340 0.000003 -6.920582 0.000001 0.000000 0.000000 0.000000 15.054850 -0.669731 9.734746 2.887477 8.303043 12.724781 0.000000 0.000000 0.000000 6.502555 49.145055 20.735548 0.000001 23.528023 -0.000002 0.000000 0.000000 0.000000 
6.635822 95.981903 -6.448875 0.000000 0.000000 0.000000 7.540916 -32.225973 -19.970969 -40.261633 -11.656137 25.814761 48.294898 5.682826 8.632615 -5.659093 28.199426 -11.844652 -0.314640 -0.000000 0.000001 0.000000 0.000000 0.000000 7.540916 -32.225973 -19.970969 -27.351778 3.321452 25.563603 18.168875 0.053935 7.352367 2.873433 12.192396 -7.410060 -4.018052 0.000002 -0.000001 0.000000 0.000000 0.000000 7.540916 -32.225973 -19.970969 19.731798 -5.430833 14.938662 14.733111 -0.897706 11.382971 0.000000 0.000000 0.000000 0.000000 0.000000 0.000000 14.978617 -0.687924 9.796559 -9.882952 -2.875216 5.450335 44.559878 -21.567909 34.825407 0.000000 0.000000 0.000000 14.978617 -0.687924 9.796559 1.400863 -22.363200 -11.688509 0.000000 0.000000 0.000000 -28.676204 -25.589632 -57.546932 0.000005 -6.924428 0.000009 0.000000 0.000000 0.000000 14.978617 -0.687924 9.796559 3.056626 8.299162 11.995882 0.000000 0.000000 0.000000 6.503503 48.500835 21.102850 0.000002 24.320685 -0.000003 0.000000 0.000000 0.000000 
6.476357 96.004036 -6.422607 0.000000 0.000000 0.000000 7.523762 -31.824085 -19.895574 -40.192170 -11.619006 25.768263 48.127285 5.746610 8.632907 -5.641913 27.764343 -11.880512 -0.314404 -0.000001 -0.000000 0.000000 0.000000 0.000000 7.523762 -31.824085 -19.895574 -27.264683 3.324372 25.571151 18.215964 0.063673 7.269103 2.726854 11.823624 -7.452397 -4.018162 0.000002 0.000004 0.000000 0.000000 0.000000 7.523762 -31.824085 -19.895574 19.592118 -5.484610 15.087686 14.656553 -0.912785 11.448701 0.000000 0.000000 0.000000 0.000000 0.000000 0.000000 14.900850 -0.700190 9.861860 -9.834030 -2.890739 5.438145 44.669775 -21.779457 34.848814 0.000000 0.000000 0.000000 14.900850 -0.700190 9.861860 1.391935 -22.407230 -11.717331 0.000000 0.000000 0.000000 -28.180146 -25.969940 -57.807210 -0.000002 -6.932591 0.000002 0.000000 0.000000 0.000000 14.900850 -0.700190 9.861860 3.230744 8.286845 11.261520 0.000000 0.000000 0.000000 6.415866 47.880067 21.578743 -0.000002 25.090748 -0.000001 0.000000 0.000000 0.000000 
